<svg width="256" height="256" viewBox="0 0 256 256" fill="none" xmlns="http://www.w3.org/2000/svg">
  <defs>
    <linearGradient id="bg" x1="28" y1="24" x2="228" y2="232" gradientUnits="userSpaceOnUse">
      <stop stop-color="#0E639C"/>
      <stop offset="1" stop-color="#1177BB"/>
    </linearGradient>
    <linearGradient id="bar" x1="0" y1="90" x2="0" y2="160" gradientUnits="userSpaceOnUse">
      <stop stop-color="#7AD7FF"/>
      <stop offset="1" stop-color="#E6F8FF"/>
    </linearGradient>
  </defs>

  <rect x="16" y="16" width="224" height="224" rx="48" fill="url(#bg)"/>

  <rect x="48" y="42" width="110" height="150" rx="16" fill="white" fill-opacity="0.95"/>
  <path d="M128 42H142C150.837 42 158 49.1634 158 58V72H143C134.716 72 128 65.2843 128 57V42Z" fill="#CFEFFF"/>

  <rect x="66" y="82" width="74" height="10" rx="5" fill="#9BCBE7"/>
  <rect x="66" y="104" width="62" height="10" rx="5" fill="#9BCBE7"/>
  <rect x="66" y="126" width="52" height="10" rx="5" fill="#9BCBE7"/>

  <rect x="150" y="140" width="18" height="44" rx="4" fill="url(#bar)"/>
  <rect x="176" y="124" width="18" height="60" rx="4" fill="url(#bar)"/>
  <rect x="202" y="98" width="18" height="86" rx="4" fill="#E6F8FF"/>
  <circle cx="211" cy="92" r="10" fill="#FFD76A"/>
  <circle cx="211" cy="92" r="6" fill="#FFF3CC"/>
</svg>
