<svg width="256" height="256" viewBox="0 0 256 256" fill="none" xmlns="http://www.w3.org/2000/svg">
<g clip-path="url(#clip0_1428_3)">
<circle cx="128" cy="128" r="128" fill="url(#paint0_radial_1428_3)"/>
<path d="M73.7227 67.549H67.3654C63.86 67.549 61 64.5052 61 60.7745C61 57.0438 63.86 54 67.3654 54H73.7227C77.2281 54 80.0881 57.0438 80.0881 60.7745C80.0881 64.5052 77.2281 67.549 73.7227 67.549Z" fill="white"/>
<path d="M73.7227 94.6405H67.3654C63.86 94.6405 61 91.5967 61 87.866C61 84.1353 63.86 81.0915 67.3654 81.0915H73.7227C77.2281 81.0915 80.0881 84.1353 80.0881 87.866C80.0881 91.5967 77.2281 94.6405 73.7227 94.6405Z" fill="white"/>
<path d="M73.7227 121.732H67.3654C63.86 121.732 61 118.688 61 114.957C61 111.227 63.86 108.183 67.3654 108.183H73.7227C77.2281 108.183 80.0881 111.227 80.0881 114.957C80.0881 118.688 77.2281 121.732 73.7227 121.732Z" fill="white"/>
<path d="M73.7227 148.817H67.3654C65.6792 148.815 64.0626 148.101 62.8696 146.833C61.6765 145.565 61.0043 143.846 61 142.051C61 138.32 63.86 135.277 67.3654 135.277H73.7227C77.2281 135.277 80.0881 138.32 80.0881 142.051C80.0838 143.846 79.4115 145.565 78.2185 146.833C77.0254 148.101 75.4088 148.815 73.7227 148.817Z" fill="white"/>
<path d="M130.712 68H99.2797C97.6142 67.9953 96.0181 67.256 94.8411 65.944C93.6641 64.632 93.0021 62.8543 93 61C93.0021 59.1457 93.6641 57.368 94.8411 56.056C96.0181 54.744 97.6142 54.0047 99.2797 54H130.712C134.175 54 137 57.1451 137 61C137 64.8549 134.175 68 130.712 68Z" fill="#60CBE9"/>
<path d="M130.712 122H99.2797C97.6142 121.995 96.0181 121.256 94.8411 119.944C93.6641 118.632 93.0021 116.854 93 115C93.0021 113.146 93.6641 111.368 94.8411 110.056C96.0181 108.744 97.6142 108.005 99.2797 108H130.712C134.175 108 137 111.145 137 115C137 118.855 134.175 122 130.712 122Z" fill="#60CBE9"/>
<path d="M162.671 95H99.3275C97.6492 94.9953 96.0411 94.256 94.8551 92.944C93.6692 91.632 93.0021 89.8543 93 88C93.0021 86.1457 93.6692 84.368 94.8551 83.056C96.0411 81.744 97.6492 81.0047 99.3275 81H162.673C166.153 81 169 84.1451 169 88C169 91.8549 166.153 95 162.673 95" fill="#60CBE9"/>
<path d="M169.123 67.6688H156.377C152.865 67.6688 150 64.5981 150 60.8344C150 57.0707 152.865 54 156.377 54H169.123C172.635 54 175.5 57.0707 175.5 60.8344C175.5 64.5981 172.635 67.6688 169.123 67.6688ZM194.623 95H188.247C184.744 95 181.879 91.9293 181.879 88.1656C181.879 84.4019 184.744 81.3312 188.247 81.3312H194.623C198.135 81.3312 201 84.4019 201 88.1656C201 91.9293 198.135 95 194.623 95Z" fill="#9584CA"/>
<path d="M73.664 175.663H67.336C63.8468 175.663 61 172.592 61 168.836C61 165.08 63.8468 162 67.336 162H73.664C77.1532 162 80 165.071 80 168.836C79.9958 170.647 79.3266 172.382 78.1391 173.661C76.9515 174.941 75.3424 175.661 73.664 175.663ZM73.664 203H67.336C63.8468 203 61 199.929 61 196.164C61.0042 194.353 61.6734 192.618 62.8609 191.339C64.0485 190.059 65.6576 189.339 67.336 189.337H73.664C77.1532 189.337 80 192.408 80 196.164C80 199.92 77.1532 203 73.664 203Z" fill="white"/>
<path d="M130.712 175.663H99.2797C97.6155 175.658 96.0207 174.938 94.8439 173.658C93.6672 172.379 93.0042 170.645 93 168.836C93.0021 167.025 93.6641 165.289 94.8411 164.008C96.0181 162.727 97.6142 162.005 99.2797 162H130.712C134.175 162 137 165.071 137 168.836C136.996 170.647 136.332 172.382 135.153 173.661C133.975 174.941 132.378 175.661 130.712 175.663ZM130.712 203H99.2797C97.6142 202.995 96.0181 202.273 94.8411 200.992C93.6641 199.711 93.0021 197.975 93 196.164C93.0042 194.355 93.6672 192.621 94.8439 191.342C96.0207 190.062 97.6155 189.342 99.2797 189.337H130.712C134.175 189.337 137 192.408 137 196.164C137 199.92 134.175 203 130.712 203Z" fill="#60CBE9"/>
<path d="M175.599 175.663H156.401C152.876 175.663 150 172.592 150 168.836C150 165.08 152.876 162 156.401 162H175.599C179.124 162 182 165.071 182 168.836C181.996 170.647 181.32 172.382 180.12 173.661C178.92 174.941 177.294 175.661 175.599 175.663ZM162.802 203H156.401C152.876 203 150 199.929 150 196.164C150.004 194.353 150.68 192.618 151.88 191.339C153.08 190.059 154.706 189.339 156.401 189.337H162.802C164.497 189.342 166.12 190.062 167.318 191.342C168.516 192.621 169.191 194.355 169.196 196.164C169.196 199.929 166.319 203 162.802 203Z" fill="#9584CA"/>
<path d="M105.664 149H99.328C95.8388 149 93 145.862 93 142.004C93.0021 140.149 93.6692 138.37 94.8553 137.057C96.0413 135.744 97.6496 135.005 99.328 135H105.664C109.153 135 112 138.147 112 142.004C111.996 143.86 111.327 145.638 110.139 146.949C108.952 148.26 107.342 148.998 105.664 149Z" fill="#60CBE9"/>
<path d="M149.799 149H131.201C129.559 148.998 127.984 148.26 126.821 146.949C125.659 145.638 125.004 143.86 125 142.004C125 138.147 127.786 135 131.201 135H149.799C153.214 135 156 138.147 156 142.004C155.996 143.86 155.341 145.638 154.179 146.949C153.016 148.26 151.441 148.998 149.799 149Z" fill="#9584CA"/>
</g>
<defs>
<radialGradient id="paint0_radial_1428_3" cx="0" cy="0" r="1" gradientUnits="userSpaceOnUse" gradientTransform="translate(128 128) rotate(90) scale(128)">
<stop stop-color="#003EB3"/>
<stop offset="0.802885" stop-color="#001D66"/>
</radialGradient>
<clipPath id="clip0_1428_3">
<rect width="256" height="256" fill="white"/>
</clipPath>
</defs>
</svg>
